<svg width="307" height="208" viewBox="0 0 307 208" fill="none" xmlns="http://www.w3.org/2000/svg">
<path d="M214.119 0.00133569C213.848 -0.0133464 213.566 0.092352 213.364 0.351141L152.185 77.2778C152.077 77.4133 152.01 77.5767 151.99 77.7493C151.97 77.9218 152 78.0964 152.074 78.253C152.149 78.4095 152.266 78.5415 152.413 78.6338C152.559 78.7261 152.728 78.7749 152.901 78.7746H197.108C198.305 78.7746 199.428 78.2317 200.172 77.2922L214.139 59.7357C214.694 59.031 215 58.1625 215 57.267V0.924606C215 0.383261 214.572 0.0251332 214.119 0.00133569V0.00133569ZM71.8779 0.00719375C71.4254 0.0302805 71 0.383388 71 0.924733V57.2671C71 58.1626 71.3062 59.0312 71.8608 59.7358L117.818 117.518C118.562 118.457 119.686 119 120.882 119H165.086C165.86 119 166.283 118.105 165.802 117.503L72.6333 0.351276C72.4308 0.0980326 72.1494 -0.00665282 71.8779 0.00720959V0.00719375Z" fill="#FA4454"/>
<path d="M266.807 152.136H277.155L277.189 184.25C277.189 184.662 277.52 185.002 277.931 185.002L283.857 184.997C284.268 184.997 284.599 184.662 284.599 184.245L284.565 152.136H297.541C297.923 152.136 298.141 151.685 297.898 151.384L293.455 145.75C293.271 145.517 293.039 145.329 292.774 145.2C292.509 145.071 292.219 145.003 291.925 145.003H266.807C266.396 145.003 266.065 145.338 266.065 145.755V151.388C266.065 151.796 266.396 152.136 266.807 152.136ZM17.0681 184.254L47.421 145.755C47.6599 145.453 47.4462 145.003 47.0648 145.003H39.4745C38.8793 145.003 38.3135 145.279 37.9447 145.75L16.4101 173.059V145.75C16.4101 145.334 16.079 144.998 15.6683 144.998H9.74185C9.33111 144.998 9 145.334 9 145.75V184.25C9 184.666 9.33111 185.002 9.74185 185.002H15.5383C16.1335 185.002 16.6951 184.725 17.0681 184.254ZM38.4686 184.254L48.9089 171.012L59.3493 184.254C59.5333 184.487 59.7667 184.676 60.0322 184.805C60.2978 184.934 60.5886 185.002 60.8833 185.002H66.6798C67.0905 185.002 67.4216 184.666 67.4216 184.25V145.75C67.4216 145.338 67.0905 144.998 66.6798 144.998H61.8179C60.6276 144.998 59.5002 145.546 58.7541 146.49L28.988 184.245C28.7491 184.547 28.9629 184.997 29.3443 184.997H36.9346C37.5339 185.002 38.0956 184.725 38.4686 184.254ZM60.0073 156.125V173.862L53.0163 164.996L60.0073 156.125ZM229.488 184.245L199.135 145.746C198.952 145.513 198.719 145.325 198.454 145.196C198.19 145.066 197.9 144.999 197.606 144.998H191.805C191.394 144.998 191.063 145.334 191.063 145.75V184.25C191.063 184.666 191.394 185.002 191.805 185.002H197.601C198.197 185.002 198.762 184.725 199.131 184.254L209.572 171.012L220.012 184.254C220.195 184.487 220.428 184.675 220.693 184.804C220.958 184.934 221.248 185.001 221.542 185.002H229.132C229.513 185.002 229.727 184.551 229.488 184.245ZM205.46 164.996L198.465 173.866V156.125L205.46 164.996ZM121.933 144C110.491 144 101.216 153.402 101.216 165C101.216 176.598 110.491 186 121.933 186C133.375 186 142.65 176.598 142.65 165C142.654 153.402 133.375 144 121.933 144ZM121.933 178.863C114.581 178.863 108.626 172.656 108.626 165C108.626 157.344 114.581 151.133 121.933 151.133C129.284 151.133 135.24 157.34 135.24 165C135.244 172.656 129.284 178.863 121.933 178.863ZM253.508 145.75V173.059L231.974 145.746C231.79 145.513 231.558 145.325 231.293 145.196C231.028 145.066 230.738 144.999 230.444 144.998H224.639C224.232 144.998 223.897 145.334 223.897 145.75V164.303C223.897 164.754 224.048 165.191 224.329 165.544L230.494 173.365C230.767 173.709 231.311 173.514 231.311 173.076V156.932L252.85 184.254C253.034 184.487 253.266 184.675 253.531 184.804C253.796 184.934 254.086 185.001 254.38 185.002H260.176C260.587 185.002 260.918 184.666 260.918 184.25V145.75C260.918 145.338 260.587 144.998 260.176 144.998H254.25C253.839 144.998 253.508 145.338 253.508 145.75ZM181.1 154.094V145.75C181.1 145.334 180.769 144.998 180.359 144.998H150.027C149.616 144.998 149.285 145.334 149.285 145.75V184.25C149.285 184.666 149.616 185.002 150.027 185.002H155.953C156.364 185.002 156.695 184.666 156.695 184.25V152.14H173.69L162.219 166.695C162.005 166.967 162.005 167.358 162.219 167.634L175.325 184.258C175.508 184.491 175.741 184.679 176.006 184.809C176.271 184.938 176.561 185.005 176.855 185.006H184.445C184.826 185.006 185.04 184.556 184.801 184.254L171.331 167.171L180.669 155.343C180.945 154.982 181.1 154.545 181.1 154.094ZM77.0615 185.002H94.6479C95.243 185.002 95.8088 184.725 96.1777 184.254L100.62 178.616C100.859 178.315 100.646 177.864 100.264 177.864H83.7297V145.75C83.7297 145.334 83.3986 144.998 82.9879 144.998H77.0615C76.6507 144.998 76.3196 145.334 76.3196 145.75V184.25C76.3196 184.662 76.6549 185.002 77.0615 185.002Z" fill="white"/>
<path d="M266.807 152.136H277.155L277.189 184.25C277.189 184.662 277.52 185.002 277.931 185.002L283.857 184.997C284.268 184.997 284.599 184.662 284.599 184.245L284.565 152.136H297.541C297.923 152.136 298.141 151.685 297.898 151.384L293.455 145.75C293.271 145.517 293.039 145.329 292.774 145.2C292.509 145.071 292.219 145.003 291.925 145.003H266.807C266.396 145.003 266.065 145.338 266.065 145.755V151.388C266.065 151.796 266.396 152.136 266.807 152.136ZM17.0681 184.254L47.421 145.755C47.6599 145.453 47.4462 145.003 47.0648 145.003H39.4745C38.8793 145.003 38.3135 145.279 37.9447 145.75L16.4101 173.059V145.75C16.4101 145.334 16.079 144.998 15.6683 144.998H9.74185C9.33111 144.998 9 145.334 9 145.75V184.25C9 184.666 9.33111 185.002 9.74185 185.002H15.5383C16.1335 185.002 16.6951 184.725 17.0681 184.254ZM38.4686 184.254L48.9089 171.012L59.3493 184.254C59.5333 184.487 59.7667 184.676 60.0322 184.805C60.2978 184.934 60.5886 185.002 60.8833 185.002H66.6798C67.0905 185.002 67.4216 184.666 67.4216 184.25V145.75C67.4216 145.338 67.0905 144.998 66.6798 144.998H61.8179C60.6276 144.998 59.5002 145.546 58.7541 146.49L28.988 184.245C28.7491 184.547 28.9629 184.997 29.3443 184.997H36.9346C37.5339 185.002 38.0956 184.725 38.4686 184.254ZM60.0073 156.125V173.862L53.0163 164.996L60.0073 156.125ZM229.488 184.245L199.135 145.746C198.952 145.513 198.719 145.325 198.454 145.196C198.19 145.066 197.9 144.999 197.606 144.998H191.805C191.394 144.998 191.063 145.334 191.063 145.75V184.25C191.063 184.666 191.394 185.002 191.805 185.002H197.601C198.197 185.002 198.762 184.725 199.131 184.254L209.572 171.012L220.012 184.254C220.195 184.487 220.428 184.675 220.693 184.804C220.958 184.934 221.248 185.001 221.542 185.002H229.132C229.513 185.002 229.727 184.551 229.488 184.245ZM205.46 164.996L198.465 173.866V156.125L205.46 164.996ZM121.933 144C110.491 144 101.216 153.402 101.216 165C101.216 176.598 110.491 186 121.933 186C133.375 186 142.65 176.598 142.65 165C142.654 153.402 133.375 144 121.933 144ZM121.933 178.863C114.581 178.863 108.626 172.656 108.626 165C108.626 157.344 114.581 151.133 121.933 151.133C129.284 151.133 135.24 157.34 135.24 165C135.244 172.656 129.284 178.863 121.933 178.863ZM253.508 145.75V173.059L231.974 145.746C231.79 145.513 231.558 145.325 231.293 145.196C231.028 145.066 230.738 144.999 230.444 144.998H224.639C224.232 144.998 223.897 145.334 223.897 145.75V164.303C223.897 164.754 224.048 165.191 224.329 165.544L230.494 173.365C230.767 173.709 231.311 173.514 231.311 173.076V156.932L252.85 184.254C253.034 184.487 253.266 184.675 253.531 184.804C253.796 184.934 254.086 185.001 254.38 185.002H260.176C260.587 185.002 260.918 184.666 260.918 184.25V145.75C260.918 145.338 260.587 144.998 260.176 144.998H254.25C253.839 144.998 253.508 145.338 253.508 145.75ZM181.1 154.094V145.75C181.1 145.334 180.769 144.998 180.359 144.998H150.027C149.616 144.998 149.285 145.334 149.285 145.75V184.25C149.285 184.666 149.616 185.002 150.027 185.002H155.953C156.364 185.002 156.695 184.666 156.695 184.25V152.14H173.69L162.219 166.695C162.005 166.967 162.005 167.358 162.219 167.634L175.325 184.258C175.508 184.491 175.741 184.679 176.006 184.809C176.271 184.938 176.561 185.005 176.855 185.006H184.445C184.826 185.006 185.04 184.556 184.801 184.254L171.331 167.171L180.669 155.343C180.945 154.982 181.1 154.545 181.1 154.094ZM77.0615 185.002H94.6479C95.243 185.002 95.8088 184.725 96.1777 184.254L100.62 178.616C100.859 178.315 100.646 177.864 100.264 177.864H83.7297V145.75C83.7297 145.334 83.3986 144.998 82.9879 144.998H77.0615C76.6507 144.998 76.3196 145.334 76.3196 145.75V184.25C76.3196 184.662 76.6549 185.002 77.0615 185.002Z" fill="white"/>
<g opacity="0.2" filter="url(#filter0_d_204_2)">
<path d="M4 197H303" stroke="#FA4454" stroke-width="5"/>
</g>
<defs>
<filter id="filter0_d_204_2" x="0" y="194.5" width="307" height="13" filterUnits="userSpaceOnUse" color-interpolation-filters="sRGB">
<feFlood flood-opacity="0" result="BackgroundImageFix"/>
<feColorMatrix in="SourceAlpha" type="matrix" values="0 0 0 0 0 0 0 0 0 0 0 0 0 0 0 0 0 0 127 0" result="hardAlpha"/>
<feOffset dy="4"/>
<feGaussianBlur stdDeviation="2"/>
<feComposite in2="hardAlpha" operator="out"/>
<feColorMatrix type="matrix" values="0 0 0 0 0 0 0 0 0 0 0 0 0 0 0 0 0 0 0.25 0"/>
<feBlend mode="normal" in2="BackgroundImageFix" result="effect1_dropShadow_204_2"/>
<feBlend mode="normal" in="SourceGraphic" in2="effect1_dropShadow_204_2" result="shape"/>
</filter>
</defs>
</svg>
