<svg width="34" height="28" viewBox="0 0 34 28" fill="none" xmlns="http://www.w3.org/2000/svg">
<path d="M33.792 0.00031428C33.7279 -0.00314034 33.6615 0.0217299 33.6137 0.0826215L19.1688 18.183C19.1433 18.2149 19.1273 18.2533 19.1226 18.2939C19.118 18.3345 19.1249 18.3756 19.1426 18.4125C19.1602 18.4493 19.1879 18.4804 19.2225 18.5021C19.257 18.5238 19.2969 18.5353 19.3377 18.5352H29.7755C30.058 18.5352 30.3232 18.4075 30.499 18.1864L33.7968 14.0555C33.9277 13.8897 34 13.6853 34 13.4746V0.217554C34 0.0901791 33.8989 0.00591369 33.792 0.00031428V0.00031428ZM0.207288 0.00169265C0.100446 0.00712482 0 0.0902089 0 0.217584V13.4746C0 13.6853 0.0723077 13.8897 0.203249 14.0555L11.0543 27.6512C11.23 27.8723 11.4952 28 11.7777 28H22.2149C22.3975 28 22.4975 27.7894 22.3838 27.6478L0.385636 0.0826531C0.337825 0.0230665 0.271392 -0.00156537 0.207288 0.00169637V0.00169265Z" fill="black"/>
</svg>
