<svg width="38" height="35" viewBox="0 0 38 35" fill="none" xmlns="http://www.w3.org/2000/svg">
<path d="M18.7069 20.4167C23.0117 20.4167 26.5014 16.4992 26.5014 11.6667C26.5014 6.8342 23.0117 2.91669 18.7069 2.91669C14.4021 2.91669 10.9124 6.8342 10.9124 11.6667C10.9124 16.4992 14.4021 20.4167 18.7069 20.4167Z" fill="black"/>
<path d="M33.9842 27.8542C32.5812 25.2292 29.9311 23.0417 26.5015 21.7292C25.5661 21.4375 24.4749 21.4375 23.6954 21.875C22.1365 22.75 20.5776 23.1875 18.7069 23.1875C16.8362 23.1875 15.2773 22.75 13.7184 21.875C12.939 21.5834 11.8477 21.4375 10.9124 21.875C7.48278 23.1875 4.83264 25.3751 3.42962 28.0001C2.33838 29.8959 4.05318 32.0834 6.39154 32.0834H31.0223C33.3607 32.0834 35.0755 29.8959 33.9842 27.8542Z" fill="black"/>
</svg>
