<svg width="44" height="33" viewBox="0 0 44 33" fill="none" xmlns="http://www.w3.org/2000/svg">
<path d="M39.4167 0C36.85 0 34.8333 2.01667 34.8333 4.58333C34.8333 5.86667 35.3833 7.15 36.3 7.88333L29.8833 18.5167C29.3333 18.3333 28.9667 18.15 28.4167 18.15C27.5 18.15 26.5833 18.5167 25.85 18.8833L19.4333 12.4667C19.8 11.9167 20.1667 11 20.1667 10.0833C20.1667 7.51667 18.15 5.5 15.5833 5.5C13.0167 5.5 11 7.51667 11 10.0833C11 11.3667 11.55 12.65 12.4667 13.3833L6.05 24.0167C5.68333 24.0167 5.13333 23.8333 4.58333 23.8333C2.01667 23.8333 0 25.85 0 28.4167C0 30.9833 2.01667 33 4.58333 33C7.15 33 9.16667 30.9833 9.16667 28.4167C9.16667 27.1333 8.61667 25.85 7.7 25.1167L14.1167 14.4833C14.4833 14.4833 15.0333 14.6667 15.5833 14.6667C16.5 14.6667 17.4167 14.3 18.15 13.9333L24.5667 20.35C24.2 21.0833 23.8333 22 23.8333 22.9167C23.8333 25.4833 25.85 27.5 28.4167 27.5C30.9833 27.5 33 25.4833 33 22.9167C33 21.6333 32.45 20.35 31.5333 19.6167L37.95 8.98333C38.3167 8.98333 38.8667 9.16667 39.4167 9.16667C41.9833 9.16667 44 7.15 44 4.58333C44 2.01667 41.9833 0 39.4167 0Z" fill="black"/>
</svg>
